<?xml version="1.0" encoding="UTF-8" standalone="no"?>
<!-- Created with Inkscape (http://www.inkscape.org/) -->

<svg
   xmlns:dc="http://purl.org/dc/elements/1.1/"
   xmlns:cc="http://creativecommons.org/ns#"
   xmlns:rdf="http://www.w3.org/1999/02/22-rdf-syntax-ns#"
   xmlns:svg="http://www.w3.org/2000/svg"
   xmlns="http://www.w3.org/2000/svg"
   xmlns:sodipodi="http://sodipodi.sourceforge.net/DTD/sodipodi-0.dtd"
   xmlns:inkscape="http://www.inkscape.org/namespaces/inkscape"
   width="133.5mm"
   height="42.627571mm"
   viewBox="0 0 473.03149 151.04257"
   id="svg2"
   version="1.1"
   inkscape:version="0.91 r13725"
   sodipodi:docname="encoding.svg">
  <defs
     id="defs4">
    <marker
       inkscape:isstock="true"
       style="overflow:visible"
       id="marker5029"
       refX="0"
       refY="0"
       orient="auto"
       inkscape:stockid="Arrow2Mend">
      <path
         transform="scale(-0.6,-0.6)"
         d="M 8.7185878,4.0337352 -2.2072895,0.01601326 8.7185884,-4.0017078 c -1.7454984,2.3720609 -1.7354408,5.6174519 -6e-7,8.035443 z"
         style="fill:#000000;fill-opacity:1;fill-rule:evenodd;stroke:#000000;stroke-width:0.625;stroke-linejoin:round;stroke-opacity:1"
         id="path5031"
         inkscape:connector-curvature="0" />
    </marker>
    <marker
       inkscape:stockid="Arrow2Mend"
       orient="auto"
       refY="0"
       refX="0"
       id="marker4801"
       style="overflow:visible"
       inkscape:isstock="true"
       inkscape:collect="always">
      <path
         id="path4803"
         style="fill:#000000;fill-opacity:1;fill-rule:evenodd;stroke:#000000;stroke-width:0.625;stroke-linejoin:round;stroke-opacity:1"
         d="M 8.7185878,4.0337352 -2.2072895,0.01601326 8.7185884,-4.0017078 c -1.7454984,2.3720609 -1.7354408,5.6174519 -6e-7,8.035443 z"
         transform="scale(-0.6,-0.6)"
         inkscape:connector-curvature="0" />
    </marker>
    <marker
       inkscape:isstock="true"
       style="overflow:visible"
       id="marker4747"
       refX="0"
       refY="0"
       orient="auto"
       inkscape:stockid="Arrow2Mend"
       inkscape:collect="always">
      <path
         transform="scale(-0.6,-0.6)"
         d="M 8.7185878,4.0337352 -2.2072895,0.01601326 8.7185884,-4.0017078 c -1.7454984,2.3720609 -1.7354408,5.6174519 -6e-7,8.035443 z"
         style="fill:#000000;fill-opacity:1;fill-rule:evenodd;stroke:#000000;stroke-width:0.625;stroke-linejoin:round;stroke-opacity:1"
         id="path4749"
         inkscape:connector-curvature="0" />
    </marker>
    <marker
       inkscape:stockid="Arrow2Mend"
       orient="auto"
       refY="0"
       refX="0"
       id="Arrow2Mend"
       style="overflow:visible"
       inkscape:isstock="true"
       inkscape:collect="always">
      <path
         id="path4406"
         style="fill:#000000;fill-opacity:1;fill-rule:evenodd;stroke:#000000;stroke-width:0.625;stroke-linejoin:round;stroke-opacity:1"
         d="M 8.7185878,4.0337352 -2.2072895,0.01601326 8.7185884,-4.0017078 c -1.7454984,2.3720609 -1.7354408,5.6174519 -6e-7,8.035443 z"
         transform="scale(-0.6,-0.6)"
         inkscape:connector-curvature="0" />
    </marker>
    <marker
       inkscape:stockid="Arrow2Lend"
       orient="auto"
       refY="0"
       refX="0"
       id="marker4655"
       style="overflow:visible"
       inkscape:isstock="true">
      <path
         id="path4657"
         style="fill:#000000;fill-opacity:1;fill-rule:evenodd;stroke:#000000;stroke-width:0.625;stroke-linejoin:round;stroke-opacity:1"
         d="M 8.7185878,4.0337352 -2.2072895,0.01601326 8.7185884,-4.0017078 c -1.7454984,2.3720609 -1.7354408,5.6174519 -6e-7,8.035443 z"
         transform="matrix(-1.1,0,0,-1.1,-1.1,0)"
         inkscape:connector-curvature="0" />
    </marker>
    <marker
       inkscape:stockid="Arrow2Lend"
       orient="auto"
       refY="0"
       refX="0"
       id="Arrow2Lend"
       style="overflow:visible"
       inkscape:isstock="true">
      <path
         id="path4400"
         style="fill:#000000;fill-opacity:1;fill-rule:evenodd;stroke:#000000;stroke-width:0.625;stroke-linejoin:round;stroke-opacity:1"
         d="M 8.7185878,4.0337352 -2.2072895,0.01601326 8.7185884,-4.0017078 c -1.7454984,2.3720609 -1.7354408,5.6174519 -6e-7,8.035443 z"
         transform="matrix(-1.1,0,0,-1.1,-1.1,0)"
         inkscape:connector-curvature="0" />
    </marker>
  </defs>
  <sodipodi:namedview
     id="base"
     pagecolor="#ffffff"
     bordercolor="#666666"
     borderopacity="1.0"
     inkscape:pageopacity="0.0"
     inkscape:pageshadow="2"
     inkscape:zoom="1.8952683"
     inkscape:cx="193.98933"
     inkscape:cy="45.005272"
     inkscape:document-units="mm"
     inkscape:current-layer="layer1"
     showgrid="false"
     inkscape:snap-global="false"
     inkscape:window-width="1920"
     inkscape:window-height="1007"
     inkscape:window-x="0"
     inkscape:window-y="27"
     inkscape:window-maximized="0"
     fit-margin-top="0"
     fit-margin-left="0"
     fit-margin-right="0"
     fit-margin-bottom="0">
    <inkscape:grid
       type="xygrid"
       id="grid4136"
       units="mm"
       spacingx="0.88582675"
       spacingy="0.88582678"
       empspacing="4"
       originx="-1.7716535"
       originy="-60.692878" />
  </sodipodi:namedview>
  <metadata
     id="metadata7">
    <rdf:RDF>
      <cc:Work
         rdf:about="">
        <dc:format>image/svg+xml</dc:format>
        <dc:type
           rdf:resource="http://purl.org/dc/dcmitype/StillImage" />
        <dc:title></dc:title>
      </cc:Work>
    </rdf:RDF>
  </metadata>
  <g
     inkscape:label="Layer 1"
     inkscape:groupmode="layer"
     id="layer1"
     transform="translate(-1.7716535,-840.62675)">
    <rect
       style="fill:#f57900;fill-opacity:1;stroke:#000000;stroke-width:1.77165353;stroke-linecap:square;stroke-miterlimit:4;stroke-dasharray:none;stroke-opacity:1"
       id="rect5548"
       width="83.267715"
       height="28.346457"
       x="390.6496"
       y="844.19287" />
    <rect
       style="fill:#d3d7cf;fill-opacity:1;stroke:#000000;stroke-width:1.77165353;stroke-linecap:square;stroke-miterlimit:4;stroke-dasharray:none;stroke-opacity:1"
       id="rect5255"
       width="175.39371"
       height="28.346457"
       x="2.6574802"
       y="844.19293"
       rx="6.7797503"
       ry="6.7797508" />
    <text
       xml:space="preserve"
       style="font-style:normal;font-weight:normal;font-size:40px;line-height:125%;font-family:Sans;text-align:center;letter-spacing:0px;word-spacing:0px;text-anchor:middle;fill:#000000;fill-opacity:1;stroke:none;stroke-width:1px;stroke-linecap:butt;stroke-linejoin:miter;stroke-opacity:1"
       x="89.331894"
       y="863.77374"
       id="text4138"
       sodipodi:linespacing="125%"
       transform="scale(1.000004,0.99999599)"><tspan
         sodipodi:role="line"
         id="tspan4140"
         x="89.331894"
         y="863.77374"
         style="font-style:normal;font-variant:normal;font-weight:normal;font-stretch:normal;font-size:20px;font-family:'Source Code Pro';-inkscape-font-specification:'Source Code Pro';text-align:center;text-anchor:middle">Db:maj(9)/3</tspan></text>
    <text
       xml:space="preserve"
       style="font-style:normal;font-weight:normal;font-size:40.00045013px;line-height:125%;font-family:Sans;text-align:center;letter-spacing:0px;word-spacing:0px;text-anchor:middle;fill:#ffffff;fill-opacity:1;stroke:none;stroke-width:1px;stroke-linecap:butt;stroke-linejoin:miter;stroke-opacity:1"
       x="431.5029"
       y="863.77991"
       id="text4138-0"
       sodipodi:linespacing="125%"
       transform="scale(1.0000112,0.9999888)"><tspan
         sodipodi:role="line"
         id="tspan4140-4"
         x="431.5029"
         y="863.77991"
         style="font-style:normal;font-variant:normal;font-weight:normal;font-stretch:normal;font-size:20.00022507px;font-family:'Source Code Pro';-inkscape-font-specification:'Source Code Pro';text-align:center;text-anchor:middle;fill:#ffffff">C#:maj</tspan></text>
    <rect
       style="fill:#4e9a06;fill-opacity:1;stroke:#000000;stroke-width:1.77165353;stroke-linecap:square;stroke-miterlimit:4;stroke-dasharray:none;stroke-opacity:1"
       id="rect4162"
       width="19.48819"
       height="19.488174"
       x="232.97244"
       y="898.60236" />
    <rect
       y="971.29529"
       x="310.9252"
       height="19.488174"
       width="19.48819"
       id="rect4196"
       style="fill:#4e9a06;fill-opacity:1;stroke:#000000;stroke-width:1.77165353;stroke-linecap:square;stroke-miterlimit:4;stroke-dasharray:none;stroke-opacity:1" />
    <text
       xml:space="preserve"
       style="font-style:normal;font-weight:normal;font-size:40px;line-height:125%;font-family:Sans;letter-spacing:0px;word-spacing:0px;fill:#000000;fill-opacity:1;stroke:none;stroke-width:1px;stroke-linecap:butt;stroke-linejoin:miter;stroke-opacity:1"
       x="223.77663"
       y="890.41992"
       id="text4227"
       sodipodi:linespacing="125%"><tspan
         sodipodi:role="line"
         id="tspan4229"
         x="223.77663"
         y="890.41992"
         style="font-style:normal;font-variant:normal;font-weight:normal;font-stretch:normal;font-size:17.5px;font-family:'Source Code Pro';-inkscape-font-specification:'Source Code Pro';text-align:center;text-anchor:middle">C</tspan></text>
    <text
       sodipodi:linespacing="125%"
       id="text4231"
       y="890.69904"
       x="262.40073"
       style="font-style:normal;font-weight:normal;font-size:40.00310135px;line-height:125%;font-family:Sans;letter-spacing:0px;word-spacing:0px;fill:#000000;fill-opacity:1;stroke:none;stroke-width:1px;stroke-linecap:butt;stroke-linejoin:miter;stroke-opacity:1"
       xml:space="preserve"
       transform="scale(1.0000776,0.99992241)"><tspan
         style="font-style:normal;font-variant:normal;font-weight:normal;font-stretch:normal;font-size:17.50135803px;font-family:'Source Code Pro';-inkscape-font-specification:'Source Code Pro';text-align:center;text-anchor:middle"
         y="890.69904"
         x="262.40073"
         id="tspan4233"
         sodipodi:role="line">D</tspan></text>
    <text
       xml:space="preserve"
       style="font-style:normal;font-weight:normal;font-size:40.00310135px;line-height:125%;font-family:Sans;letter-spacing:0px;word-spacing:0px;fill:#000000;fill-opacity:1;stroke:none;stroke-width:1px;stroke-linecap:butt;stroke-linejoin:miter;stroke-opacity:1"
       x="300.84903"
       y="890.69904"
       id="text4235"
       sodipodi:linespacing="125%"
       transform="scale(1.0000776,0.99992241)"><tspan
         sodipodi:role="line"
         id="tspan4237"
         x="300.84903"
         y="890.69904"
         style="font-style:normal;font-variant:normal;font-weight:normal;font-stretch:normal;font-size:17.50135803px;font-family:'Source Code Pro';-inkscape-font-specification:'Source Code Pro';text-align:center;text-anchor:middle">E</tspan></text>
    <text
       transform="scale(1.0000776,0.99992241)"
       sodipodi:linespacing="125%"
       id="text4239"
       y="890.69904"
       x="321.7572"
       style="font-style:normal;font-weight:normal;font-size:40.00310135px;line-height:125%;font-family:Sans;letter-spacing:0px;word-spacing:0px;fill:#000000;fill-opacity:1;stroke:none;stroke-width:1px;stroke-linecap:butt;stroke-linejoin:miter;stroke-opacity:1"
       xml:space="preserve"><tspan
         style="font-style:normal;font-variant:normal;font-weight:normal;font-stretch:normal;font-size:17.50135803px;font-family:'Source Code Pro';-inkscape-font-specification:'Source Code Pro';text-align:center;text-anchor:middle"
         y="890.69904"
         x="321.7572"
         id="tspan4241"
         sodipodi:role="line">F</tspan></text>
    <text
       xml:space="preserve"
       style="font-style:normal;font-weight:normal;font-size:40.00310135px;line-height:125%;font-family:Sans;letter-spacing:0px;word-spacing:0px;fill:#000000;fill-opacity:1;stroke:none;stroke-width:1px;stroke-linecap:butt;stroke-linejoin:miter;stroke-opacity:1"
       x="358.62262"
       y="890.48901"
       id="text4243"
       sodipodi:linespacing="125%"
       transform="scale(1.0000776,0.99992241)"><tspan
         sodipodi:role="line"
         id="tspan4245"
         x="358.62262"
         y="890.48901"
         style="font-style:normal;font-variant:normal;font-weight:normal;font-stretch:normal;font-size:17.50135803px;font-family:'Source Code Pro';-inkscape-font-specification:'Source Code Pro';text-align:center;text-anchor:middle">G</tspan></text>
    <text
       transform="scale(1.0000776,0.99992241)"
       sodipodi:linespacing="125%"
       id="text4247"
       y="890.69904"
       x="397.9635"
       style="font-style:normal;font-weight:normal;font-size:40.00310135px;line-height:125%;font-family:Sans;letter-spacing:0px;word-spacing:0px;fill:#000000;fill-opacity:1;stroke:none;stroke-width:1px;stroke-linecap:butt;stroke-linejoin:miter;stroke-opacity:1"
       xml:space="preserve"><tspan
         style="font-style:normal;font-variant:normal;font-weight:normal;font-stretch:normal;font-size:17.50135803px;font-family:'Source Code Pro';-inkscape-font-specification:'Source Code Pro';text-align:center;text-anchor:middle"
         y="890.69904"
         x="397.9635"
         id="tspan4249"
         sodipodi:role="line">A</tspan></text>
    <text
       xml:space="preserve"
       style="font-style:normal;font-weight:normal;font-size:40.00310135px;line-height:125%;font-family:Sans;letter-spacing:0px;word-spacing:0px;fill:#000000;fill-opacity:1;stroke:none;stroke-width:1px;stroke-linecap:butt;stroke-linejoin:miter;stroke-opacity:1"
       x="437.46579"
       y="890.69904"
       id="text4251"
       sodipodi:linespacing="125%"
       transform="scale(1.0000776,0.99992241)"><tspan
         sodipodi:role="line"
         id="tspan4253"
         x="437.46579"
         y="890.69904"
         style="font-style:normal;font-variant:normal;font-weight:normal;font-stretch:normal;font-size:17.50135803px;font-family:'Source Code Pro';-inkscape-font-specification:'Source Code Pro';text-align:center;text-anchor:middle">B</tspan></text>
    <text
       transform="scale(1.0000776,0.99992241)"
       sodipodi:linespacing="125%"
       id="text4255"
       y="890.69904"
       x="457.30249"
       style="font-style:normal;font-weight:normal;font-size:40.00310135px;line-height:125%;font-family:Sans;letter-spacing:0px;word-spacing:0px;fill:#cc0000;fill-opacity:1;stroke:none;stroke-width:1px;stroke-linecap:butt;stroke-linejoin:miter;stroke-opacity:1"
       xml:space="preserve"><tspan
         style="font-style:normal;font-variant:normal;font-weight:normal;font-stretch:normal;font-size:17.50135803px;font-family:'Source Code Pro';-inkscape-font-specification:'Source Code Pro';text-align:center;text-anchor:middle;fill:#cc0000"
         y="890.69904"
         x="457.30249"
         id="tspan4257"
         sodipodi:role="line">N</tspan></text>
    <path
       inkscape:connector-curvature="0"
       id="path4331"
       d="m 213.48426,971.29527 c 84.44882,0 168.89764,0 253.34646,0 0,6.4961 0,12.99213 0,19.48823 -84.44882,0 -168.89764,0 -253.34646,0 0,-6.4961 0,-12.99213 0,-19.48823 z m -1e-5,0 c 6.49607,0 12.99213,0 19.48819,0 0,6.4961 0,12.99213 0,19.48823 -6.49606,0 -12.99212,0 -19.48819,0 0,-6.4961 0,-12.99213 0,-19.48823 z m 233.85828,0 c 6.49606,0 12.99213,0 19.48819,0 0,6.4961 0,12.99213 0,19.48823 -6.49606,0 -12.99213,0 -19.48819,0 0,-6.4961 0,-12.99213 0,-19.48823 z m -38.97638,0 c 6.49606,0 12.99213,0 19.48819,0 0,6.4961 0,12.99213 0,19.48823 -6.49606,0 -12.99213,0 -19.48819,0 0,-6.4961 0,-12.99213 0,-19.48823 z m -38.97638,0 c 6.49606,0 12.99213,0 19.48819,0 0,6.4961 0,12.99213 0,19.48823 -6.49606,0 -12.99213,0 -19.48819,0 0,-6.4961 0,-12.99213 0,-19.48823 z m -38.97638,0 c 6.49606,0 12.99213,0 19.48819,0 0,6.4961 0,12.99213 0,19.48823 -6.49606,0 -12.99213,0 -19.48819,0 0,-6.4961 0,-12.99213 0,-19.48823 z m -38.97638,0 c 6.49606,0 12.99213,0 19.48819,0 0,6.4961 0,12.99213 0,19.48823 -6.49606,0 -12.99213,0 -19.48819,0 0,-6.4961 0,-12.99213 0,-19.48823 z m -38.97638,0 c 6.49606,0 12.99213,0 19.48819,0 0,6.4961 0,12.99213 0,19.48823 -6.49606,0 -12.99213,0 -19.48819,0 0,-6.4961 0,-12.99213 0,-19.48823 z"
       style="fill:none;fill-opacity:0.49698797;stroke:#000000;stroke-width:1.77165353;stroke-linecap:square;stroke-miterlimit:4;stroke-dasharray:none;stroke-opacity:1" />
    <path
       style="fill:none;fill-opacity:0.49698797;stroke:#000000;stroke-width:1.77165353;stroke-linecap:square;stroke-miterlimit:4;stroke-dasharray:none;stroke-opacity:1"
       d="m 213.48426,898.60235 c 84.44882,0 168.89764,0 253.34646,0 0,6.4961 0,12.9921 0,19.4882 -84.44882,0 -168.89764,0 -253.34646,0 0,-6.4961 0,-12.9921 0,-19.4882 z m -1e-5,0 c 6.49607,0 12.99213,0 19.48819,0 0,6.4961 0,12.9921 0,19.4882 -6.49606,0 -12.99212,0 -19.48819,0 0,-6.4961 0,-12.9921 0,-19.4882 z m 233.85828,0 c 6.49606,0 12.99213,0 19.48819,0 0,6.4961 0,12.9921 0,19.4882 -6.49606,0 -12.99213,0 -19.48819,0 0,-6.4961 0,-12.9921 0,-19.4882 z m -38.97638,0 c 6.49606,0 12.99213,0 19.48819,0 0,6.4961 0,12.9921 0,19.4882 -6.49606,0 -12.99213,0 -19.48819,0 0,-6.4961 0,-12.9921 0,-19.4882 z m -38.97638,0 c 6.49606,0 12.99213,0 19.48819,0 0,6.4961 0,12.9921 0,19.4882 -6.49606,0 -12.99213,0 -19.48819,0 0,-6.4961 0,-12.9921 0,-19.4882 z m -38.97638,0 c 6.49606,0 12.99213,0 19.48819,0 0,6.4961 0,12.9921 0,19.4882 -6.49606,0 -12.99213,0 -19.48819,0 0,-6.4961 0,-12.9921 0,-19.4882 z m -38.97638,0 c 6.49606,0 12.99213,0 19.48819,0 0,6.4961 0,12.9921 0,19.4882 -6.49606,0 -12.99213,0 -19.48819,0 0,-6.4961 0,-12.9921 0,-19.4882 z m -38.97638,0 c 6.49606,0 12.99213,0 19.48819,0 0,6.4961 0,12.9921 0,19.4882 -6.49606,0 -12.99213,0 -19.48819,0 0,-6.4961 0,-12.9921 0,-19.4882 z"
       id="path4333"
       inkscape:connector-curvature="0" />
    <path
       style="fill:none;fill-rule:evenodd;stroke:#000000;stroke-width:1.77165353;stroke-linecap:butt;stroke-linejoin:miter;stroke-miterlimit:4;stroke-dasharray:none;stroke-opacity:1;marker-end:url(#Arrow2Mend)"
       d="m 178.937,858.64039 209.55218,0"
       id="path4373"
       inkscape:connector-curvature="0" />
    <path
       style="fill:none;fill-rule:evenodd;stroke:#000000;stroke-width:1.77165353;stroke-linecap:butt;stroke-linejoin:miter;stroke-miterlimit:4;stroke-dasharray:none;stroke-opacity:1;marker-end:url(#marker4747)"
       d="m 114.32314,873.42474 0,32.10698 95.59683,0"
       id="path4739"
       inkscape:connector-curvature="0"
       sodipodi:nodetypes="ccc" />
    <path
       inkscape:connector-curvature="0"
       id="path4799"
       d="m 114.27165,920.80296 0,59.1936 95.59683,0"
       style="fill:none;fill-rule:evenodd;stroke:#000000;stroke-width:1.77165353;stroke-linecap:butt;stroke-linejoin:miter;stroke-miterlimit:4;stroke-dasharray:none;stroke-opacity:1;marker-end:url(#marker4801)" />
    <text
       xml:space="preserve"
       style="font-style:normal;font-weight:normal;font-size:40px;line-height:125%;font-family:Sans;text-align:center;letter-spacing:0px;word-spacing:0px;text-anchor:middle;fill:#3465a4;fill-opacity:1;stroke:none;stroke-width:1px;stroke-linecap:butt;stroke-linejoin:miter;stroke-opacity:1"
       x="284.88788"
       y="853.29675"
       id="text5360"
       sodipodi:linespacing="125%"><tspan
         sodipodi:role="line"
         id="tspan5362"
         x="284.88788"
         y="853.29675"
         style="font-style:normal;font-variant:normal;font-weight:normal;font-stretch:normal;font-size:17.5px;font-family:'Source Code Pro';-inkscape-font-specification:'Source Code Pro';fill:#3465a4">Simplification</tspan></text>
    <text
       sodipodi:linespacing="125%"
       id="text5376"
       y="931.40283"
       x="53.046772"
       style="font-style:normal;font-weight:normal;font-size:40px;line-height:125%;font-family:Sans;text-align:center;letter-spacing:0px;word-spacing:0px;text-anchor:middle;fill:#3465a4;fill-opacity:1;stroke:none;stroke-width:1px;stroke-linecap:butt;stroke-linejoin:miter;stroke-opacity:1"
       xml:space="preserve"><tspan
         style="font-style:normal;font-variant:normal;font-weight:normal;font-stretch:normal;font-size:17.5px;font-family:'Source Code Pro';-inkscape-font-specification:'Source Code Pro';fill:#3465a4"
         y="931.40283"
         x="53.046772"
         id="tspan5378"
         sodipodi:role="line">Encoding</tspan></text>
    <text
       xml:space="preserve"
       style="font-style:normal;font-weight:normal;font-size:40.00042725px;line-height:125%;font-family:Sans;text-align:center;letter-spacing:0px;word-spacing:0px;text-anchor:middle;fill:#4e9a06;fill-opacity:1;stroke:none;stroke-width:1px;stroke-linecap:butt;stroke-linejoin:miter;stroke-opacity:1"
       x="199.38156"
       y="897.51746"
       id="text5416"
       sodipodi:linespacing="125%"
       transform="scale(1.0000107,0.99998931)"><tspan
         sodipodi:role="line"
         id="tspan5418"
         x="199.38156"
         y="897.51746"
         style="font-style:normal;font-variant:normal;font-weight:normal;font-stretch:normal;font-size:17.50018692px;font-family:'Source Code Pro';-inkscape-font-specification:'Source Code Pro';text-align:end;text-anchor:end;fill:#4e9a06">root</tspan></text>
    <text
       sodipodi:linespacing="125%"
       id="text5420"
       y="970.19946"
       x="199.3837"
       style="font-style:normal;font-weight:normal;font-size:40px;line-height:125%;font-family:Sans;text-align:center;letter-spacing:0px;word-spacing:0px;text-anchor:middle;fill:#4e9a06;fill-opacity:1;stroke:none;stroke-width:1px;stroke-linecap:butt;stroke-linejoin:miter;stroke-opacity:1"
       xml:space="preserve"><tspan
         style="font-style:normal;font-variant:normal;font-weight:normal;font-stretch:normal;font-size:17.5px;font-family:'Source Code Pro';-inkscape-font-specification:'Source Code Pro';text-align:end;text-anchor:end;fill:#4e9a06"
         y="970.19946"
         x="199.3837"
         id="tspan5422"
         sodipodi:role="line">bass</tspan></text>
    <g
       id="g8994"
       transform="translate(0,2)">
      <rect
         style="fill:#4e9a06;fill-opacity:1;stroke:#000000;stroke-width:1.77165353;stroke-linecap:square;stroke-miterlimit:4;stroke-dasharray:none;stroke-opacity:1"
         id="rect4275"
         width="19.48819"
         height="19.488174"
         x="232.97244"
         y="933.98828" />
      <rect
         y="933.98828"
         x="271.94882"
         height="19.488174"
         width="19.48819"
         id="rect4277"
         style="fill:#4e9a06;fill-opacity:1;stroke:#000000;stroke-width:1.77165353;stroke-linecap:square;stroke-miterlimit:4;stroke-dasharray:none;stroke-opacity:1" />
      <path
         inkscape:connector-curvature="0"
         id="rect4335"
         d="m 213.48425,933.9882 c 77.95275,0 155.90551,0 233.85826,0 0,6.4961 0,12.9921 0,19.4882 -77.95275,0 -155.90551,0 -233.85826,0 0,-6.4961 0,-12.9921 0,-19.4882 z m 1e-5,0 c -2e-5,6.4961 0,12.9921 0,19.4882 0,-6.4961 0,-12.9921 0,-19.4882 z m -1e-5,0 c 6.49607,0 12.99213,0 19.48819,0 0,6.4961 0,12.9921 0,19.4882 m 214.37009,0 c 0,-6.4961 0,-12.9921 0,-19.4882 m -38.97638,0 c 6.49606,0 12.99213,0 19.48819,0 0,6.4961 0,12.9921 0,19.4882 -6.49606,0 -12.99213,0 -19.48819,0 0,-6.4961 0,-12.9921 0,-19.4882 z m -38.97638,0 c 6.49606,0 12.99213,0 19.48819,0 0,6.4961 0,12.9921 0,19.4882 -6.49606,0 -12.99213,0 -19.48819,0 0,-6.4961 0,-12.9921 0,-19.4882 z m -38.97638,0 c 6.49606,0 12.99213,0 19.48819,0 0,6.4961 0,12.9921 0,19.4882 -6.49606,0 -12.99213,0 -19.48819,0 0,-6.4961 0,-12.9921 0,-19.4882 z m -38.97638,0 c 6.49606,0 12.99213,0 19.48819,0 0,6.4961 0,12.9921 0,19.4882 -6.49606,0 -12.99213,0 -19.48819,0 0,-6.4961 0,-12.9921 0,-19.4882 z m -38.97638,0 c 6.49606,0 12.99213,0 19.48819,0 0,6.4961 0,12.9921 0,19.4882 -6.49606,0 -12.99213,0 -19.48819,0 0,-6.4961 0,-12.9921 0,-19.4882 z"
         style="fill:none;fill-opacity:0.49698797;stroke:#000000;stroke-width:1.77165353;stroke-linecap:square;stroke-miterlimit:4;stroke-dasharray:none;stroke-opacity:1" />
      <path
         inkscape:connector-curvature="0"
         id="path5027"
         d="m 114.27165,885.26772 0,59.19358 95.59683,0"
         style="fill:none;fill-rule:evenodd;stroke:#000000;stroke-width:1.77165353;stroke-linecap:butt;stroke-linejoin:miter;stroke-miterlimit:4;stroke-dasharray:none;stroke-opacity:1;marker-end:url(#marker5029)" />
      <rect
         y="933.98828"
         x="310.9252"
         height="19.488174"
         width="19.48819"
         id="rect5292"
         style="fill:#4e9a06;fill-opacity:1;stroke:#000000;stroke-width:1.77165353;stroke-linecap:square;stroke-miterlimit:4;stroke-dasharray:none;stroke-opacity:1" />
      <text
         sodipodi:linespacing="125%"
         id="text5424"
         y="936.60132"
         x="199.3837"
         style="font-style:normal;font-weight:normal;font-size:40px;line-height:125%;font-family:Sans;text-align:center;letter-spacing:0px;word-spacing:0px;text-anchor:middle;fill:#4e9a06;fill-opacity:1;stroke:none;stroke-width:1px;stroke-linecap:butt;stroke-linejoin:miter;stroke-opacity:1"
         xml:space="preserve"><tspan
           style="font-style:normal;font-variant:normal;font-weight:normal;font-stretch:normal;font-size:17.5px;font-family:'Source Code Pro';-inkscape-font-specification:'Source Code Pro';text-align:end;text-anchor:end;fill:#4e9a06"
           y="936.60132"
           x="199.3837"
           id="tspan5426"
           sodipodi:role="line">pitches</tspan></text>
      <rect
         style="fill:#4e9a06;fill-opacity:1;stroke:#000000;stroke-width:1.77165353;stroke-linecap:square;stroke-miterlimit:4;stroke-dasharray:none;stroke-opacity:1"
         id="rect4226"
         width="19.48819"
         height="19.488174"
         x="369.38977"
         y="933.98828" />
    </g>
  </g>
</svg>
